<?xml version="1.0" encoding="utf-8"?>
<!-- Generator: Adobe Illustrator 16.0.4, SVG Export Plug-In . SVG Version: 6.00 Build 0)  -->
<!DOCTYPE svg PUBLIC "-//W3C//DTD SVG 1.1//EN" "http://www.w3.org/Graphics/SVG/1.1/DTD/svg11.dtd">
<svg version="1.1" xmlns="http://www.w3.org/2000/svg" xmlns:xlink="http://www.w3.org/1999/xlink" x="0px" y="0px" width="48px"
	 height="54px" viewBox="0 0 48 54" enable-background="new 0 0 48 54" xml:space="preserve">
<g id="Dark">
	<g id="Mac_1_">
		<path id="iMac_1_" fill="#EFEFEF" d="M46.469,11H1.531C0.831,11,0,11.833,0,12.531l0.042,29.938C0.042,43.166,0.872,44,1.572,44
			H21l-0.89,4.119c-0.302,1.369-1.563,2.272-2.927,2.188c-0.024,0.002-0.043,0.003-0.069,0.004c-0.191,0-0.346,0.154-0.346,0.346
			c0,0.152,0.104,0.279,0.243,0.323c0.015,0.007,0.028,0.013,0.042,0.015V51H17.2h13.75v-0.006c0.015-0.002,0.029-0.008,0.042-0.015
			c0.141-0.044,0.244-0.171,0.244-0.323c0-0.191-0.154-0.346-0.346-0.346c-0.026-0.001-0.044-0.002-0.069-0.004
			c-1.363,0.085-2.626-0.818-2.928-2.188L27,44h19.469C47.169,44,48,43.166,48,42.469V12.531C48,11.833,47.169,11,46.469,11z
			 M24.946,41.828c-0.03,0.061-0.061,0.117-0.093,0.167c-0.034,0.052-0.066,0.097-0.096,0.136c-0.033,0.039-0.059,0.066-0.076,0.085
			c-0.035,0.029-0.07,0.055-0.107,0.073c-0.035,0.02-0.072,0.026-0.111,0.026c-0.025,0-0.055-0.005-0.09-0.016
			c-0.036-0.011-0.072-0.022-0.109-0.034c-0.038-0.012-0.075-0.023-0.112-0.035c-0.039-0.01-0.072-0.015-0.103-0.015
			c-0.033,0-0.07,0.005-0.108,0.017c-0.04,0.012-0.079,0.023-0.118,0.036c-0.04,0.013-0.077,0.024-0.109,0.035
			c-0.033,0.01-0.062,0.015-0.083,0.015c-0.032,0-0.061-0.005-0.088-0.015c-0.029-0.011-0.059-0.029-0.09-0.054
			c-0.031-0.025-0.062-0.059-0.096-0.1c-0.036-0.042-0.074-0.093-0.116-0.155c-0.04-0.058-0.073-0.121-0.107-0.189
			c-0.031-0.069-0.061-0.141-0.083-0.216c-0.022-0.073-0.041-0.146-0.052-0.223c-0.013-0.075-0.021-0.147-0.021-0.219
			c0-0.109,0.016-0.211,0.048-0.305c0.032-0.092,0.078-0.174,0.134-0.241c0.057-0.069,0.123-0.121,0.198-0.159
			c0.075-0.037,0.157-0.056,0.246-0.056c0.065,0,0.143,0.019,0.231,0.056c0.087,0.038,0.148,0.057,0.183,0.057
			c0.012,0,0.034-0.005,0.064-0.017c0.032-0.011,0.079-0.027,0.138-0.05c0.059-0.02,0.104-0.034,0.138-0.042
			c0.035-0.008,0.071-0.013,0.107-0.013c0.099,0,0.19,0.023,0.28,0.071c0.088,0.046,0.159,0.108,0.21,0.187
			c-0.095,0.057-0.164,0.125-0.208,0.205c-0.042,0.078-0.063,0.174-0.063,0.28c0,0.112,0.029,0.214,0.089,0.308
			c0.059,0.093,0.142,0.164,0.248,0.211C25.001,41.704,24.975,41.768,24.946,41.828z M23.995,40.306
			c0-0.063,0.014-0.125,0.042-0.188c0.028-0.062,0.063-0.121,0.111-0.173c0.044-0.049,0.098-0.092,0.16-0.125
			c0.061-0.032,0.125-0.05,0.191-0.054c0.003,0.01,0.004,0.018,0.004,0.025v0.027c0,0.064-0.014,0.131-0.041,0.195
			c-0.027,0.065-0.061,0.123-0.106,0.174c-0.044,0.053-0.094,0.094-0.151,0.123c-0.056,0.031-0.113,0.046-0.171,0.046
			c-0.024,0-0.036-0.003-0.038-0.014C23.995,40.336,23.995,40.324,23.995,40.306z M46,38H2V13h44V38z"/>
	</g>
</g>
<g id="Light">
</g>
</svg>
