<?xml version="1.0" encoding="utf-8"?>
<!-- Generator: Adobe Illustrator 18.1.1, SVG Export Plug-In . SVG Version: 6.00 Build 0)  -->
<svg version="1.1"
	 xmlns="http://www.w3.org/2000/svg" xmlns:xlink="http://www.w3.org/1999/xlink" xmlns:a="http://ns.adobe.com/AdobeSVGViewerExtensions/3.0/"
	 x="0px" y="0px" width="70px" height="54px" viewBox="0 0 70 54" style="enable-background:new 0 0 70 54;" xml:space="preserve">
<g id="Dark">
	<path id="Mac_Compare_2_" style="fill:#EFEFEF;" d="M42,49V28.5c0-0.96-0.52-1.5-1.5-1.5h-35C4.52,27,4,27.5,4,28.5V49H0
		c0.05,0.09,0.13,0.32,0.21,0.32c0,0,2.07,1.25,4.64,1.42C7.42,50.92,9.99,51.01,10,51c0,0,13,0,13,0l13,0c0,0,2.36-0.08,4.93-0.25
		c2.57-0.17,4.64-1.42,4.64-1.42c0.08,0,0.38-0.23,0.44-0.32H42z M6,29h34v20H6V29z M52.95,51L52.95,51
		c0.02-0.01,0.03-0.01,0.04-0.02c0.14-0.04,0.24-0.17,0.24-0.32c0-0.19-0.15-0.34-0.35-0.34c-0.03,0-0.04,0-0.07,0
		c-1.36,0.09-2.63-0.82-2.93-2.19L49,44h19.47c0.7,0,1.53-0.83,1.53-1.53V12.53c0-0.7-0.83-1.53-1.53-1.53H23.53
		c-0.7,0-1.53,0.83-1.53,1.53L22.02,26L24,26V13h44v25H43v6v4h4v1c-0.04,1.54-3,2-3,2H52.95z M46.95,41.83
		c-0.03,0.06-0.06,0.12-0.09,0.17c-0.03,0.05-0.07,0.1-0.1,0.14c-0.03,0.04-0.06,0.07-0.08,0.08c-0.04,0.03-0.07,0.05-0.11,0.07
		c-0.03,0.02-0.07,0.03-0.11,0.03c-0.02,0-0.06-0.01-0.09-0.02c-0.04-0.01-0.07-0.02-0.11-0.03c-0.04-0.01-0.08-0.02-0.11-0.04
		c-0.04-0.01-0.07-0.01-0.1-0.01c-0.03,0-0.07,0-0.11,0.02c-0.04,0.01-0.08,0.02-0.12,0.04c-0.04,0.01-0.08,0.02-0.11,0.04
		c-0.03,0.01-0.06,0.02-0.08,0.02c-0.03,0-0.06-0.01-0.09-0.02c-0.03-0.01-0.06-0.03-0.09-0.05c-0.03-0.02-0.06-0.06-0.1-0.1
		c-0.04-0.04-0.07-0.09-0.12-0.15c-0.04-0.06-0.07-0.12-0.11-0.19c-0.03-0.07-0.06-0.14-0.08-0.22c-0.02-0.07-0.04-0.15-0.05-0.22
		c-0.01-0.08-0.02-0.15-0.02-0.22c0-0.11,0.02-0.21,0.05-0.3c0.03-0.09,0.08-0.17,0.13-0.24c0.06-0.07,0.12-0.12,0.2-0.16
		c0.08-0.04,0.16-0.06,0.25-0.06c0.07,0,0.14,0.02,0.23,0.06c0.09,0.04,0.15,0.06,0.18,0.06c0.01,0,0.03-0.01,0.06-0.02
		c0.03-0.01,0.08-0.03,0.14-0.05c0.06-0.02,0.1-0.03,0.14-0.04c0.04-0.01,0.07-0.01,0.11-0.01c0.1,0,0.19,0.02,0.28,0.07
		c0.09,0.05,0.16,0.11,0.21,0.19c-0.09,0.06-0.16,0.13-0.21,0.21c-0.04,0.08-0.06,0.17-0.06,0.28c0,0.11,0.03,0.21,0.09,0.31
		c0.06,0.09,0.14,0.16,0.25,0.21C47,41.7,46.97,41.77,46.95,41.83z M46,40.31c0-0.06,0.01-0.12,0.04-0.19
		c0.03-0.06,0.06-0.12,0.11-0.17c0.04-0.05,0.1-0.09,0.16-0.12c0.06-0.03,0.13-0.05,0.19-0.05c0,0.01,0,0.02,0,0.03v0.03
		c0,0.06-0.01,0.13-0.04,0.2c-0.03,0.06-0.06,0.12-0.11,0.17c-0.04,0.05-0.09,0.09-0.15,0.12c-0.06,0.03-0.11,0.05-0.17,0.05
		c-0.02,0-0.04,0-0.04-0.01C46,40.34,46,40.32,46,40.31z"/>
</g>
<g id="Light">
</g>
</svg>
